{"title":"G.I. Joe Retaliation 2013 TS NEWSOURCE XviD AC3 - TODE","uid":8339860,"size":732660737,"categoryP":"video","categoryS":"movies","magnet":"?xt=urn:btih:5195fddbec43efd6caa3864676f6a45e7f70c39a&amp;dn=G.I.+Joe+Retaliation+2013+TS+NEWSOURCE+XviD+AC3+-+TODE&amp;tr=udp%3A%2F%2Ftracker.openbittorrent.com%3A80&amp;tr=udp%3A%2F%2Fopen.demonii.com%3A1337&amp;tr=udp%3A%2F%2Ftracker.coppersurfer.tk%3A6969&amp;tr=udp%3A%2F%2Fexodus.desync.com%3A6969","seeders":1,"leechers":0,"uploader":"Gh0stNet","files":2,"time":1365071526,"description":"Plot: The G.I. Joes are not only fighting their mortal enemy Cobra; they are forced to contend with threats from within the government that jeopardize their very existence.\n\n\n\nDirector:\nJon M. Chu\n\nWriters:\nRhett Reese, Paul Wernick\n\nStars:\nDwayne Johnson, D.J. Cotrona, Channing Tatum\n\nGenres:\nAction |  Adventure |  Sci-Fi |  Thriller\n\nCountry:\nUSA\n\nLanguage:\nEnglish\n\n\nThnks: sC0rp\n\n\n\nFormat                                   : AVI\nFormat/Info                              : Audio Video Interleave\nFile size                                : 699 MiB\nDuration                                 : 1h 40mn\nOverall bit rate                         : 969 Kbps\nWriting application                      : Lavf54.59.103\n\nVideo\nID                                       : 0\nFormat                                   : MPEG-4 Visual\nFormat profile                           : Simple@L3\nFormat settings, BVOP                    : No\nFormat settings, QPel                    : No\nFormat settings, GMC                     : No warppoints\nFormat settings, Matrix                  : Default (H.263)\nCodec ID                                 : XVID\nCodec ID/Hint                            : XviD\nDuration                                 : 1h 40mn\nBit rate                                 : 895 Kbps\nWidth                                    : 640 pixels\nHeight                                   : 272 pixels\nDisplay aspect ratio                     : 2.35:1\nFrame rate                               : 23.976 fps\nColor space                              : YUV\nChroma subsampling                       : 4:2:0\nBit depth                                : 8 bits\nScan type                                : Progressive\nCompression mode                         : Lossy\nBits/(Pixel*Frame)                       : 0.214\nStream size                              : 645 MiB (92%)\nWriting library                          : XviD 64\n\nAudio\nID                                       : 1\nFormat                                   : AC-3\nFormat/Info                              : Audio Coding 3\nMode extension                           : CM (complete main)\nFormat settings, Endianness              : Big\nCodec ID                                 : 2000\nDuration                                 : 1h 40mn\nBit rate mode                            : Constant\nBit rate                                 : 64.0 Kbps\nChannel(s)                               : 2 channels\nChannel positions                        : Front: L R\nSampling rate                            : 48.0 KHz\nBit depth                                : 16 bits\nCompression mode                         : Lossy\nStream size                              : 46.1 MiB (7%)\nAlignment                                : Aligned on interleaves\nInterleave, duration                     : 32 ms (0.77 video frame)\n\nScreens: &lt;a href=&quot;\nhttp://rupix.org/images/89689782869744115914.png&quot; rel=&quot;nofollow&quot; target=&quot;_NEW&quot;&gt;\nhttp://rupix.org/images/89689782869744115914.png&lt;/a&gt; &lt;a href=&quot;\nhttp://rupix.org/images/61651014472641577223.png&quot; rel=&quot;nofollow&quot; target=&quot;_NEW&quot;&gt;\nhttp://rupix.org/images/61651014472641577223.png&lt;/a&gt;","torrent":{"xt":"urn:btih:5195fddbec43efd6caa3864676f6a45e7f70c39a","amp;dn":"G.I.+Joe+Retaliation+2013+TS+NEWSOURCE+XviD+AC3+-+TODE","amp;tr":["udp%3A%2F%2Ftracker.openbittorrent.com%3A80","udp%3A%2F%2Fopen.demonii.com%3A1337","udp%3A%2F%2Ftracker.coppersurfer.tk%3A6969","udp%3A%2F%2Fexodus.desync.com%3A6969"],"infoHash":"5195fddbec43efd6caa3864676f6a45e7f70c39a","infoHashBuffer":{"type":"Buffer","data":[81,149,253,219,236,67,239,214,202,163,134,70,118,246,164,94,127,112,195,154]},"announce":[],"urlList":[]}}